<svg xmlns="http://www.w3.org/2000/svg" viewBox="0 0 160.67 48.96"><defs><style>.cls-1{fill:#005a7d;stroke:#005a7d;stroke-miterlimit:10;fill-rule:evenodd;}</style></defs><g id="Layer_2" data-name="Layer 2"><g id="Layer_1-2" data-name="Layer 1"><g id="_UIKit" data-name=" UIKit"><g id="logo-2" data-name="logo"><path class="cls-1" d="M94.62,18.42A11.55,11.55,0,0,1,93.4,24a10,10,0,0,1-3.29,3.64,14.42,14.42,0,0,1-4.77,2,24.23,24.23,0,0,1-5.63.64H75.2V44.41H66.13V6.85h13.8a26.2,26.2,0,0,1,5.75.61,13.5,13.5,0,0,1,4.67,2A9.43,9.43,0,0,1,93.48,13a11.74,11.74,0,0,1,1.14,5.44Zm-9.07,0A4.05,4.05,0,0,0,85,16.3,3.73,3.73,0,0,0,83.59,15a6.31,6.31,0,0,0-2-.64,18,18,0,0,0-2.36-.16h-4V23H79a13.68,13.68,0,0,0,2.44-.21,6.62,6.62,0,0,0,2.1-.74A4,4,0,0,0,85,20.67a4.19,4.19,0,0,0,.53-2.2Zm28.86,9.71a5.19,5.19,0,0,0-1.3-3.55,4.89,4.89,0,0,0-3.9-1.49,6.52,6.52,0,0,0-2.33.4A5.93,5.93,0,0,0,105,24.63a5.36,5.36,0,0,0-1.27,1.61,4.66,4.66,0,0,0-.53,1.94Zm8,3.34v1.06a8.07,8.07,0,0,1-.06,1H103.22a4.64,4.64,0,0,0,.66,2,5.73,5.73,0,0,0,1.43,1.56,7,7,0,0,0,4.22,1.41,7.33,7.33,0,0,0,3.5-.77,6.9,6.9,0,0,0,2.34-2l6,3.82a12.28,12.28,0,0,1-4.91,4.16,16.14,16.14,0,0,1-7.08,1.46,17.18,17.18,0,0,1-5.63-.92,13.77,13.77,0,0,1-4.64-2.71A12.47,12.47,0,0,1,96,37.25a14.64,14.64,0,0,1-1.14-5.94A14.89,14.89,0,0,1,96,25.45a13.1,13.1,0,0,1,7.54-7.3,15.46,15.46,0,0,1,5.62-1,14.13,14.13,0,0,1,5.36,1A11.68,11.68,0,0,1,118.71,21a13.1,13.1,0,0,1,2.73,4.51,17.25,17.25,0,0,1,1,6.05Zm22.78-6.42a8.09,8.09,0,0,0-1.14-.21c-.38,0-.74-.05-1.09-.05a6.28,6.28,0,0,0-2.95.63A6.19,6.19,0,0,0,138.12,27a5.91,5.91,0,0,0-1,2,6.59,6.59,0,0,0-.32,1.85V44.41h-8.7V18h8.38v3.82h.11a8.65,8.65,0,0,1,2.86-3.29,7.48,7.48,0,0,1,4.3-1.27c.36,0,.7,0,1,.05a4.4,4.4,0,0,1,.82.16Zm6.16,19.31V6.85h8.8V44.41Z"/></g></g><g id="Perlorg"><g id="Home"><g id="header"><g id="btn-about"><g id="ic_header_about" data-name="ic header about"><path id="Stroke-1" class="cls-1" d="M42.52,15.62a3,3,0,1,0-3,2.9,3,3,0,0,0,3-2.9Z"/><path id="Stroke-3" class="cls-1" d="M10.91,15.62a3,3,0,1,0,3-2.89,3,3,0,0,0-3,2.89Z"/><path id="Stroke-5" class="cls-1" d="M17,34.46l0,.16,0,.16a10.46,10.46,0,0,0,.26,1.12,13.55,13.55,0,0,0,1,2.42c1.77,3.36,4.66,4.73,8.66,2.83h-.56c4,1.9,6.92.53,8.77-2.82a13,13,0,0,0,1-2.41,11.1,11.1,0,0,0,.29-1.12l0-.17,0-.17-3-11.19-1.32.4,3,11.18v-.33c0,.18-.12.51-.25.95a11.42,11.42,0,0,1-.9,2.14c-1.52,2.76-3.73,3.79-7,2.23l-.28-.13-.28.13c-3.29,1.56-5.45.54-6.9-2.22a11.23,11.23,0,0,1-.85-2.14c-.12-.43-.2-.77-.23-.95v.32l3-11.18-1.32-.4Z"/><path id="Stroke-7" class="cls-1" d="M34.63,19.65c-1.09-.12-2.21.52-3.46,1.72A20.91,20.91,0,0,0,28.91,24c-.68.89-1.33,1.86-1.94,2.82-.36.57-.63,1-.78,1.28l1.43,0-.23-.36c-.18-.28-.39-.59-.62-.92-.65-1-1.35-1.91-2.08-2.81a25.57,25.57,0,0,0-2.12-2.35c-1.42-1.36-2.65-2.08-3.81-1.95l.18,1.54c.49-.05,1.38.47,2.46,1.5a24.12,24.12,0,0,1,2,2.21c.7.86,1.38,1.78,2,2.71.38.55.66,1,.82,1.22L27,30.05l.69-1.2c.14-.25.4-.68.75-1.24.58-.92,1.21-1.85,1.86-2.72a20.23,20.23,0,0,1,2.1-2.43c.91-.88,1.67-1.31,2.1-1.26l.18-1.55Z"/><path id="Stroke-9" class="cls-1" d="M40.14,7.48c.24,0,.64,0,1.15-.08A18.81,18.81,0,0,0,43.82,7a6.07,6.07,0,0,0,3.61-2,1.89,1.89,0,0,1,3.31.19c1,2,.64,7.4-1.08,8.94l-.21.19a26.69,26.69,0,0,1-3.07,2.3c-.63.41-1.11.69-1.38.84l.82,1.35.42-.24c.32-.19.69-.41,1.07-.67a28.51,28.51,0,0,0,3.26-2.44l.23-.2c2.3-2.06,2.67-8.14,1.45-10.71a3.58,3.58,0,0,0-6.18-.42,4.77,4.77,0,0,1-2.66,1.32,16.83,16.83,0,0,1-2.29.38c-.47.05-.83.07-1,.07l0,1.56Z"/><path id="Stroke-11" class="cls-1" d="M26.57.5l-.84.2c-.66.17-1.4.36-2.19.6A49.36,49.36,0,0,0,16.9,3.77C11.55,6.25,8,9.29,7.14,13a9.67,9.67,0,0,0-.27,1.9,16.07,16.07,0,0,0,1.45,6.87,20.46,20.46,0,0,0,1,2c.2.38.36.65.46.8l-.12-.35c0,.14,0,.39.07.75,0,.59.11,1.25.18,2,.19,2,.42,4.07.66,6,.32,2.5.66,4.57,1,6.09C12,42,22.21,48.46,26.83,48.46S41.47,42,41.88,39c.33-1.46.67-3.53,1-6,.25-1.9.47-3.93.67-6,.06-.71.13-1.37.18-2q0-.54.06-.75l-.12.35c.1-.15.26-.42.47-.8.33-.61.67-1.3,1-2.05a16,16,0,0,0,1.44-6.86A9.88,9.88,0,0,0,46.29,13c-.85-3.73-4.39-6.78-9.72-9.26A49,49,0,0,0,30,1.3c-.79-.23-1.52-.43-2.18-.6L26.94.5ZM26.94,2h-.37l.79.18c.63.16,1.34.36,2.1.58a47.92,47.92,0,0,1,6.39,2.39c4.91,2.29,8.11,5,8.83,8.2A8,8,0,0,1,44.91,15a14.62,14.62,0,0,1-1.32,6.22c-.3.69-.61,1.33-.93,1.91-.18.34-.33.58-.41.7l-.1.16v.18c0,.14,0,.39-.07.74,0,.59-.11,1.25-.18,1.95-.19,2-.41,4-.65,5.92-.32,2.46-.65,4.49-1,6C40,40.89,30.69,46.9,26.83,46.9s-13.35-6-13.64-8.09c-.35-1.53-.68-3.56-1-6-.25-1.88-.47-3.9-.66-5.92-.07-.7-.13-1.36-.18-1.95,0-.35,0-.6-.06-.74l0-.18-.1-.16c-.08-.12-.22-.36-.41-.7-.32-.58-.63-1.22-.93-1.91A14.59,14.59,0,0,1,8.52,15a7.81,7.81,0,0,1,.23-1.63c.72-3.17,3.93-5.93,8.88-8.21A47.68,47.68,0,0,1,24,2.78c.76-.22,1.47-.42,2.11-.58L26.94,2Z"/><path id="Stroke-13" class="cls-1" d="M26.4,7.38C21.64,7.38,18,13,18,19.85c0,5.9,3,10,8.36,13.08l.44.26.45-.26c5.16-3,8.12-7.14,8.12-13.09,0-6.8-3.78-12.49-8.57-12.49l-.5,0Zm.07,1.47.44,0c3.58,0,6.85,4.93,6.85,11,0,5.41-2.65,9.11-7.37,11.85h.89c-4.87-2.83-7.6-6.49-7.6-11.84,0-6.14,3.11-11,6.72-11Z"/><path id="Stroke-15" class="cls-1" d="M8.37,17.35A15.07,15.07,0,0,1,7,16.55a23.88,23.88,0,0,1-3.1-2.3l-.11-.1c-1.72-1.54-2-6.92-1.08-8.94A1.89,1.89,0,0,1,6,5,6,6,0,0,0,9.5,7,18.06,18.06,0,0,0,12,7.43l1.13.09L13.15,6c-.19,0-.54,0-1-.08a15.57,15.57,0,0,1-2.22-.39A4.57,4.57,0,0,1,7.36,4.16a3.58,3.58,0,0,0-6.17.41C0,7.14.33,13.22,2.64,15.28l.12.11a25.31,25.31,0,0,0,3.31,2.46c.4.25.76.46,1.1.65l.43.23.77-1.38Z"/><polygon id="Stroke-17" class="cls-1" points="25.89 32.3 25.89 42.02 27.54 42.02 27.54 32.3 25.89 32.3"/></g></g></g></g></g></g></g></svg>