<?xml version="1.0" encoding="utf-8"?>
<!-- Generator: Adobe Illustrator 25.0.1, SVG Export Plug-In . SVG Version: 6.00 Build 0)  -->
<svg version="1.1" id="svelte" xmlns="http://www.w3.org/2000/svg" xmlns:xlink="http://www.w3.org/1999/xlink" x="0px" y="0px"
	 viewBox="0 0 519 139" style="enable-background:new 0 0 519 139;" xml:space="preserve">
<style type="text/css">
	.st0{fill:#4A4A55;}
	.st1{fill:#FF3E00;}
	.st2{fill:#FFFFFF;}
</style>
<path id="logotype" class="st0" d="M147.8,112.9c-5.8,0.2-11.5-1.7-16.3-5.4c-4.5-3.5-7.9-8.8-9.5-14.9l9.9-4.3
	c1.4,3.8,3.6,7,6.5,9.3c2.9,2.3,6.3,3.5,9.8,3.4c3.4,0.2,6.7-1,9.4-3.3c2.4-2.4,3.7-5.9,3.5-9.6c0-1.7-0.3-3.4-1-4.9
	c-0.6-1.3-1.3-2.6-2.2-3.7c-1.1-1.2-2.4-2.2-3.8-2.9c-1.7-1-3.1-1.8-4.2-2.3c-1.1-0.5-2.8-1.2-4.9-2.1c-2.7-1.1-4.8-2-6.1-2.6
	c-1.8-0.9-3.6-2-5.3-3.2c-1.8-1.2-3.5-2.7-5-4.4c-1.2-1.7-2.2-3.7-3-5.8c-2.9-8.3-1-17.8,4.8-23.6c4.1-4.2,9.6-6.3,16.5-6.3
	c5.8,0,10.6,1.5,14.3,4.5c3.6,2.9,6.3,7.2,7.6,12.1l-9.7,3.8c-1-2.6-2.7-4.8-4.8-6.2c-2.5-1.6-5.4-2.4-8.2-2.3
	c-2.8-0.2-5.6,0.7-8,2.6c-1.9,1.8-3,4.6-2.9,7.4c0,2.2,0.8,4.3,2.2,5.8c1.3,1.6,2.9,2.8,4.7,3.7c1.6,0.8,4.1,1.9,7.4,3.2
	c2,0.9,3.6,1.5,4.5,2c0.9,0.5,2.4,1.2,4.3,2.2c1.5,0.8,3,1.7,4.4,2.8c1.2,1.1,2.4,2.2,3.6,3.4c1.2,1.3,2.3,2.7,3.1,4.4
	c0.8,1.7,1.4,3.5,1.8,5.4c0.5,2.2,0.8,4.5,0.8,6.8c0,7.8-2.3,14-6.8,18.4C160.7,110.7,154.8,112.9,147.8,112.9z M212.7,111.5
	l-24.3-84h11.3L215.9,86c0.9,3.1,1.6,6.4,2.2,9.6c0.6-3.2,1.3-6.4,2.2-9.6l15.9-58.5h11.2l-24.2,83.9L212.7,111.5z M268.9,111.5v-84
	h44v11.7h-33.5v23h21.6v11.7h-21.6v25.6h35.7v11.7L268.9,111.5z M342,111.5v-84h10.5v71.9h34.7v12L342,111.5z M426.9,39.6v71.9
	h-10.5V39.5h-20.1v-12H447v12L426.9,39.6z M468.8,111.5v-84h44v11.7h-33.5v23h21.6v11.7h-21.6v25.6H515v11.7L468.8,111.5z"/>
<path id="back" class="st1" d="M95.2,28.4C84.8,13.5,64.3,9.1,49.4,18.6L23.4,35.2c-7.1,4.5-12,11.7-13.5,20
	c-1.2,6.9-0.2,14,3.1,20.2c-2.2,3.4-3.8,7.2-4.5,11.2C7,95,8.9,103.7,13.9,110.7c10.4,14.9,30.9,19.3,45.8,9.8L85.8,104
	c7.1-4.5,12-11.7,13.5-20c1.2-6.9,0.1-14-3.1-20.2c2.2-3.4,3.8-7.2,4.5-11.2C102.2,44.1,100.2,35.5,95.2,28.4"/>
<path id="front" class="st2" d="M46.9,112.2c-8.4,2.2-17.3-1.1-22.2-8.2c-3-4.2-4.2-9.4-3.3-14.5c0.1-0.8,0.4-1.6,0.6-2.4l0.5-1.5
	l1.3,1c3.1,2.2,6.5,4,10.2,5.1l1,0.3l-0.1,1c-0.1,1.4,0.3,2.7,1.1,3.8c1.5,2.1,4.2,3.1,6.7,2.5c0.6-0.2,1.1-0.4,1.6-0.7l26-16.6
	c1.3-0.8,2.2-2.1,2.4-3.6c0.3-1.5-0.1-3.1-1-4.4c-1.5-2.1-4.2-3.1-6.7-2.5c-0.6,0.2-1.1,0.4-1.6,0.7l-10,6.3c-1.6,1-3.4,1.8-5.3,2.3
	c-8.4,2.2-17.3-1.1-22.2-8.2c-3-4.2-4.2-9.4-3.2-14.5c0.9-5,3.8-9.4,8.1-12.1L57,29.3c1.6-1,3.4-1.8,5.3-2.3
	c8.4-2.2,17.3,1.1,22.2,8.2c3,4.2,4.2,9.4,3.3,14.5c-0.2,0.8-0.4,1.6-0.6,2.4l-0.5,1.5l-1.3-1c-3.1-2.3-6.5-4-10.2-5.1l-1-0.3l0.1-1
	c0.1-1.4-0.3-2.8-1.1-3.9c-1.5-2.1-4.2-3.1-6.7-2.4c-0.6,0.2-1.1,0.4-1.6,0.7L38.8,57.3c-1.3,0.8-2.2,2.1-2.5,3.6
	c-0.3,1.5,0.1,3.1,1,4.4c1.5,2.1,4.1,3.1,6.7,2.5c0.6-0.2,1.1-0.4,1.6-0.7l10-6.3c1.6-1,3.4-1.8,5.3-2.3c8.4-2.2,17.3,1.1,22.2,8.2
	c3,4.2,4.2,9.4,3.3,14.5c-0.9,5-3.8,9.4-8.1,12.1l-26.1,16.6C50.6,110.9,48.8,111.7,46.9,112.2"/>
</svg>
